<?xml version='1.0' encoding='UTF-8' standalone='no'?>
<!-- Created with Fritzing (http://www.fritzing.org/) -->
<svg xmlns="http://www.w3.org/2000/svg" baseProfile="tiny" y="0in"  x="0in" version="1.2" width="1in" viewBox="0 0 72 64.8" height="0.9in">
    <desc >
        <referenceFile >BNO08x rev C_pcb.svg</referenceFile>
    </desc>
    <desc >Fritzing footprint generated by brd2svg</desc>
    <g  gorn="0.2" id="silkscreen">
        <path  stroke="white" d="M0.288,7.42399A6.912,6.912,0,0,1,7.4304,0.288L64.5696,0.288A6.912,6.912,0,0,1,71.712,7.42399L71.712,57.376A6.912,6.912,0,0,1,64.5696,64.512L7.4304,64.512A6.912,6.912,0,0,1,0.288,57.376L0.288,7.42399" fill="none" stroke-width="0.576"/>
        <path  stroke="white" d="M48.6113,51.6628A2.88,2.88,0,0,0,51.4913,48.7828" fill="none" stroke-width="0.72"/>
        <path  stroke="white" d="M45.7313,48.7828A2.88,2.88,0,0,0,48.6113,51.6628" fill="none" stroke-width="0.72"/>
        <path  stroke="white" d="M48.6113,45.9028A2.88,2.88,0,0,0,45.7313,48.7828" fill="none" stroke-width="0.72"/>
        <path  stroke="white" d="M51.4913,48.7828A2.83103,2.83103,0,0,0,48.6113,45.9028" fill="none" stroke-width="0.72"/>
        <g >
            <title >polygon</title>
            <path stroke-linecap="round"  stroke="white" d="M51.4913,49.1428L51.4913,48.4228L53.2913,48.4228L53.2913,47.7028L54.7313,48.7828L53.2913,49.8628L53.2913,49.1428L51.4913,49.1428" fill="none" stroke-width="0.72"/>
        </g>
        <g >
            <title >polygon</title>
            <path stroke-linecap="round"  stroke="white" d="M48.9487,45.8972L48.2287,45.8972L48.2287,44.0972L47.5087,44.0972L48.5887,42.6572L49.6687,44.0972L48.9487,44.0972L48.9487,45.8972" fill="none" stroke-width="0.72"/>
        </g>
        <g >
            <title >element:CONN3</title>
            <g >
                <title >package:JST_SH4</title>
                <line stroke-linecap="round" y1="40.9039"  stroke="white" y2="40.9039" x1="65.8942" stroke-width="0.432" x2="58.5241"/>
                <line stroke-linecap="round" y1="40.9039"  stroke="white" y2="37.7858" x1="58.5241" stroke-width="0.432" x2="58.5241"/>
                <line stroke-linecap="round" y1="27.0142"  stroke="white" y2="23.6126" x1="58.5241" stroke-width="0.432" x2="58.5241"/>
                <line stroke-linecap="round" y1="23.6126"  stroke="white" y2="23.6126" x1="58.5241" stroke-width="0.432" x2="65.8942"/>
                <line stroke-linecap="round" y1="38.3527"  stroke="white" y2="26.4473" x1="70.7131" stroke-width="0.432" x2="70.7131"/>
            </g>
        </g>
        <g >
            <title >element:CONN4</title>
            <g >
                <title >package:JST_SH4</title>
                <line stroke-linecap="round" y1="23.8961"  stroke="white" y2="23.8961" x1="6.10583" stroke-width="0.432" x2="13.4759"/>
                <line stroke-linecap="round" y1="23.8961"  stroke="white" y2="27.0142" x1="13.4759" stroke-width="0.432" x2="13.4759"/>
                <line stroke-linecap="round" y1="37.7858"  stroke="white" y2="41.1874" x1="13.4759" stroke-width="0.432" x2="13.4759"/>
                <line stroke-linecap="round" y1="41.1874"  stroke="white" y2="41.1874" x1="13.4759" stroke-width="0.432" x2="6.10583"/>
                <line stroke-linecap="round" y1="26.4473"  stroke="white" y2="38.3527" x1="1.28693" stroke-width="0.432" x2="1.28693"/>
            </g>
        </g>
        <g >
            <title >element:U$30</title>
            <g >
                <title >package:STEMMAQT</title>
            </g>
        </g>
        <g >
            <title >element:U$31</title>
            <g >
                <title >package:STEMMAQT</title>
            </g>
        </g>
    </g>
    <g  gorn="0.3" id="copper1">
        <g  gorn="0.3.0" id="copper0">
            <circle connectorname="P$1" cy="7.2"  stroke="#F7BD13" r="4.26331" fill="none" gorn="0.3.0.0" id="connector78pad" stroke-width="1.44" cx="64.8"/>
            <g transform="matrix(-1, 0, 0, -1, 115.348, 73.3039)" >
                <g >
                    <g >
                        <rect y="35.8016"  stroke="none" x="55.4769" width="4.3937" fill="#F7BD13" gorn="0.3.0.1.0.0.0" id="connector19pad" stroke-width="0" height="1.70078"/>
                    </g>
                </g>
            </g>
            <g transform="matrix(-1, 0, 0, -1, 115.348, 67.6346)" >
                <g >
                    <g >
                        <rect y="32.9669"  stroke="none" x="55.4769" width="4.3937" fill="#F7BD13" gorn="0.3.0.2.0.0.0" id="connector20pad" stroke-width="0" height="1.70078"/>
                    </g>
                </g>
            </g>
            <g transform="matrix(-1, 0, 0, -1, 115.348, 61.9654)" >
                <g >
                    <g >
                        <rect y="30.1323"  stroke="none" x="55.4769" width="4.3937" fill="#F7BD13" gorn="0.3.0.3.0.0.0" id="connector21pad" stroke-width="0" height="1.70078"/>
                    </g>
                </g>
            </g>
            <g transform="matrix(-1, 0, 0, -1, 115.348, 56.2961)" >
                <g >
                    <g >
                        <rect y="27.2976"  stroke="none" x="55.4769" width="4.3937" fill="#F7BD13" gorn="0.3.0.4.0.0.0" id="connector22pad" stroke-width="0" height="1.70078"/>
                    </g>
                </g>
            </g>
            <circle connectorname="P$1" cy="57.6"  stroke="#F7BD13" r="4.26331" fill="none" gorn="0.3.0.5" id="connector80pad" stroke-width="1.44" cx="64.8"/>
            <rect y="27.2976"  stroke="none" x="12.1295" width="4.3937" fill="#F7BD13" gorn="0.3.0.6" id="connector25pad" stroke-width="0" height="1.70078"/>
            <rect y="30.1323"  stroke="none" x="12.1295" width="4.3937" fill="#F7BD13" gorn="0.3.0.7" id="connector26pad" stroke-width="0" height="1.70078"/>
            <rect y="32.9669"  stroke="none" x="12.1295" width="4.3937" fill="#F7BD13" gorn="0.3.0.8" id="connector27pad" stroke-width="0" height="1.70078"/>
            <rect y="35.8016"  stroke="none" x="12.1295" width="4.3937" fill="#F7BD13" gorn="0.3.0.9" id="connector28pad" stroke-width="0" height="1.70078"/>
            <circle connectorname="VCC" cy="57.6"  stroke="#F7BD13" r="1.96866" fill="none" gorn="0.3.0.10" id="connector35pad" stroke-width="1.10268" cx="18"/>
            <circle connectorname="3.3V" cy="57.6"  stroke="#F7BD13" r="1.96866" fill="none" gorn="0.3.0.11" id="connector36pad" stroke-width="1.10268" cx="25.2"/>
            <circle connectorname="GND" cy="57.6"  stroke="#F7BD13" r="1.96866" fill="none" gorn="0.3.0.12" id="connector37pad" stroke-width="1.10268" cx="32.4"/>
            <circle connectorname="SCL/SCK/RX" cy="57.6"  stroke="#F7BD13" r="1.96866" fill="none" gorn="0.3.0.13" id="connector38pad" stroke-width="1.10268" cx="39.6"/>
            <circle connectorname="SDA/MISO/TX" cy="57.6"  stroke="#F7BD13" r="1.96866" fill="none" gorn="0.3.0.14" id="connector39pad" stroke-width="1.10268" cx="46.8"/>
            <circle connectorname="INT" cy="57.6"  stroke="#F7BD13" r="1.96866" fill="none" gorn="0.3.0.15" id="connector40pad" stroke-width="1.10268" cx="54"/>
            <circle connectorname="P$1" cy="7.2"  stroke="#F7BD13" r="4.26331" fill="none" gorn="0.3.0.16" id="connector77pad" stroke-width="1.44" cx="7.2"/>
            <circle connectorname="BOOT" cy="7.2"  stroke="#F7BD13" r="1.96866" fill="none" gorn="0.3.0.17" id="connector41pad" stroke-width="1.10268" cx="18"/>
            <circle connectorname="P$1" cy="57.6"  stroke="#F7BD13" r="4.26331" fill="none" gorn="0.3.0.18" id="connector79pad" stroke-width="1.44" cx="7.2"/>
            <circle connectorname="PS0" cy="7.2"  stroke="#F7BD13" r="1.96866" fill="none" gorn="0.3.0.19" id="connector42pad" stroke-width="1.10268" cx="25.2"/>
            <circle connectorname="PS1" cy="7.2"  stroke="#F7BD13" r="1.96866" fill="none" gorn="0.3.0.20" id="connector43pad" stroke-width="1.10268" cx="32.4"/>
            <circle connectorname="RST" cy="7.2"  stroke="#F7BD13" r="1.96866" fill="none" gorn="0.3.0.21" id="connector44pad" stroke-width="1.10268" cx="39.6"/>
            <circle connectorname="MOSI" cy="7.2"  stroke="#F7BD13" r="1.96866" fill="none" gorn="0.3.0.22" id="connector45pad" stroke-width="1.10268" cx="46.8"/>
            <circle connectorname="CS" cy="7.2"  stroke="#F7BD13" r="1.96866" fill="none" gorn="0.3.0.23" id="connector46pad" stroke-width="1.10268" cx="54"/>
        </g>
    </g>
</svg>
