<?xml version='1.0' encoding='utf-8'?>
<!-- Generator: Adobe Illustrator 24.2.3, SVG Export Plug-In . SVG Version: 6.00 Build 0)  -->
<svg xmlns="http://www.w3.org/2000/svg" y="0px"  version="1.1" x="0px" xml:space="preserve" width="1.5in" gorn="0" enable-background="new 0 0 108 93.6" id="Layer_1" viewBox="0 0 108 93.6" xmlns:xml="http://www.w3.org/XML/1998/namespace" height="1.3in">
    <desc >
        <referenceFile >BNO08x rev C_schematic.svg</referenceFile>
    </desc>
    <desc >Fritzing schematic generated by brd2svg</desc>
    <g  gorn="0.2" id="schematic">
        <rect stroke-linecap="round" y="14.4"  stroke="#000000" x="14.4" width="78.75" fill="none" stroke-linejoin="round" stroke-width="0.9" height="64.8"/>
        <g transform="matrix(1 0 0 1 46.7651 46.6587)" >
            <g >
                <text font-family="'DroidSans'"  gorn="0.2.1.0.0" id="label" font-size="2.8">BNO08x</text>
            </g>
        </g>
        <g transform="matrix(1 0 0 1 46.7932 41.2413)" >
            <g >
                <text font-family="'DroidSans'"  gorn="0.2.2.0.0" id="label_1_" font-size="2.8">Adafruit</text>
            </g>
        </g>
        <line stroke-linecap="round" y1="28.8"  stroke="#787878" y2="28.8" x1="0.35" fill="none" stroke-linejoin="round" stroke-width="0.7" x2="14.4"/>
        <rect y="28.45"  width="14.4" fill="none" gorn="0.2.4" id="connector41pin" height="0.7"/>
        <rect y="28.45"  width="0" fill="none" gorn="0.2.5" id="connector41terminal" height="0.7"/>
        <g transform="matrix(1 0 0 1 15.8 29.5)" >
            <g >
                <text font-family="'DroidSans'"  fill="#8C8C8C" gorn="0.2.6.0.0" id="label41" font-size="2.8">BOOT</text>
            </g>
        </g>
        <line stroke-linecap="round" y1="36"  stroke="#787878" y2="36" x1="0.35" fill="none" stroke-linejoin="round" stroke-width="0.7" x2="14.4"/>
        <rect y="35.65"  width="14.4" fill="none" gorn="0.2.8" id="connector42pin" height="0.7"/>
        <rect y="35.65"  width="0" fill="none" gorn="0.2.9" id="connector42terminal" height="0.7"/>
        <g transform="matrix(1 0 0 1 15.8 36.7)" >
            <g >
                <text font-family="'DroidSans'"  fill="#8C8C8C" gorn="0.2.10.0.0" id="label42" font-size="2.8">PS0</text>
            </g>
        </g>
        <line stroke-linecap="round" y1="43.2"  stroke="#787878" y2="43.2" x1="0.35" fill="none" stroke-linejoin="round" stroke-width="0.7" x2="14.4"/>
        <rect y="42.85"  width="14.4" fill="none" gorn="0.2.12" id="connector43pin" height="0.7"/>
        <rect y="42.85"  width="0" fill="none" gorn="0.2.13" id="connector43terminal" height="0.7"/>
        <g transform="matrix(1 0 0 1 15.8 43.9)" >
            <g >
                <text font-family="'DroidSans'"  fill="#8C8C8C" gorn="0.2.14.0.0" id="label43" font-size="2.8">PS1</text>
            </g>
        </g>
        <line stroke-linecap="round" y1="50.4"  stroke="#787878" y2="50.4" x1="0.35" fill="none" stroke-linejoin="round" stroke-width="0.7" x2="14.4"/>
        <rect y="50.05"  width="14.4" fill="none" gorn="0.2.16" id="connector44pin" height="0.7"/>
        <rect y="50.05"  width="0" fill="none" gorn="0.2.17" id="connector44terminal" height="0.7"/>
        <g transform="matrix(1 0 0 1 15.8 51.1)" >
            <g >
                <text font-family="'DroidSans'"  fill="#8C8C8C" gorn="0.2.18.0.0" id="label44" font-size="2.8">RST</text>
            </g>
        </g>
        <line stroke-linecap="round" y1="57.6"  stroke="#787878" y2="57.6" x1="0.35" fill="none" stroke-linejoin="round" stroke-width="0.7" x2="14.4"/>
        <rect y="57.25"  width="14.4" fill="none" gorn="0.2.20" id="connector45pin" height="0.7"/>
        <rect y="57.25"  width="0" fill="none" gorn="0.2.21" id="connector45terminal" height="0.7"/>
        <g transform="matrix(1 0 0 1 15.8 58.3)" >
            <g >
                <text font-family="'DroidSans'"  fill="#8C8C8C" gorn="0.2.22.0.0" id="label45" font-size="2.8">MOSI</text>
            </g>
        </g>
        <line stroke-linecap="round" y1="64.8"  stroke="#787878" y2="64.8" x1="0.35" fill="none" stroke-linejoin="round" stroke-width="0.7" x2="14.4"/>
        <rect y="64.45"  width="14.4" fill="none" gorn="0.2.24" id="connector46pin" height="0.7"/>
        <rect y="64.45"  width="0" fill="none" gorn="0.2.25" id="connector46terminal" height="0.7"/>
        <g transform="matrix(1 0 0 1 15.8 65.5)" >
            <g >
                <text font-family="'DroidSans'"  fill="#8C8C8C" gorn="0.2.26.0.0" id="label46" font-size="2.8">CS</text>
            </g>
        </g>
        <line stroke-linecap="round" y1="28.8"  stroke="#787878" y2="28.8" x1="93.2501" fill="none" stroke-linejoin="round" stroke-width="0.7" x2="107.65"/>
        <rect y="28.45"  x="93.6" width="14.4" fill="none" gorn="0.2.28" id="connector22pin" height="0.7"/>
        <rect y="28.45"  x="108" width="0" fill="none" gorn="0.2.29" id="connector22terminal" height="0.7"/>
        <g transform="matrix(1 0 0 1 74.0099 29.5)" >
            <g >
                <text font-family="'DroidSans'"  fill="#8C8C8C" gorn="0.2.30.0.0" id="label22" font-size="2.8">SCL/SCK/RX</text>
            </g>
        </g>
        <line stroke-linecap="round" y1="36"  stroke="#787878" y2="36" x1="93.2501" fill="none" stroke-linejoin="round" stroke-width="0.7" x2="107.65"/>
        <rect y="35.65"  x="93.6" width="14.4" fill="none" gorn="0.2.32" id="connector21pin" height="0.7"/>
        <rect y="35.65"  x="108" width="0" fill="none" gorn="0.2.33" id="connector21terminal" height="0.7"/>
        <g transform="matrix(1 0 0 1 70.9081 36.7)" >
            <g >
                <text font-family="'DroidSans'"  fill="#8C8C8C" gorn="0.2.34.0.0" id="label21" font-size="2.8">SDA/MISO/TX</text>
            </g>
        </g>
        <line stroke-linecap="round" y1="43.2"  stroke="#787878" y2="43.2" x1="93.2501" fill="none" stroke-linejoin="round" stroke-width="0.7" x2="107.65"/>
        <rect y="42.85"  x="93.6" width="14.4" fill="none" gorn="0.2.36" id="connector40pin" height="0.7"/>
        <rect y="42.85"  x="108" width="0" fill="none" gorn="0.2.37" id="connector40terminal" height="0.7"/>
        <g transform="matrix(1 0 0 1 86.6461 43.9)" >
            <g >
                <text font-family="'DroidSans'"  fill="#8C8C8C" gorn="0.2.38.0.0" id="label40" font-size="2.8">INT</text>
            </g>
        </g>
        <line stroke-linecap="round" y1="0.35"  stroke="#787878" y2="14.4" x1="50.4" fill="none" stroke-linejoin="round" stroke-width="0.7" x2="50.4"/>
        <rect y="0"  x="50.05" width="0.7" fill="none" gorn="0.2.40" id="connector36pin" height="14.4"/>
        <polygon points="50.05,0 50.75,0 50.75,0 "  fill="none" gorn="0.2.41" id="connector36terminal"/>
        <g transform="matrix(1, 0, 0, 1, 51.8, 16)" >
            <g >
                <g >
                    <g transform="rotate(270)" >
                        <g >
                            <g >
                                <g transform="matrix(1 0 0 1 -6.781 0)" >
                                    <g >
                                        <text font-family="'DroidSans'"  fill="#8C8C8C" gorn="0.2.42.0.0.0.0.0.0.0.0" id="label36" font-size="2.8">3.3V</text>
                                    </g>
                                </g>
                            </g>
                        </g>
                    </g>
                </g>
            </g>
        </g>
        <line stroke-linecap="round" y1="0.35"  stroke="#787878" y2="14.4" x1="57.6" fill="none" stroke-linejoin="round" stroke-width="0.7" x2="57.6"/>
        <rect y="0"  x="57.25" width="0.7" fill="none" gorn="0.2.44" id="connector20pin" height="14.4"/>
        <polygon points="57.25,0 57.95,0 57.95,0 "  fill="none" gorn="0.2.45" id="connector20terminal"/>
        <g transform="matrix(1, 0, 0, 1, 59, 16)" >
            <g >
                <g >
                    <g transform="rotate(270)" >
                        <g >
                            <g >
                                <g transform="matrix(1 0 0 1 -6.0681 0)" >
                                    <g >
                                        <text font-family="'DroidSans'"  fill="#8C8C8C" gorn="0.2.46.0.0.0.0.0.0.0.0" id="label20" font-size="2.8">VCC</text>
                                    </g>
                                </g>
                            </g>
                        </g>
                    </g>
                </g>
            </g>
        </g>
        <line stroke-linecap="round" y1="79.2"  stroke="#787878" y2="93.2501" x1="50.4" fill="none" stroke-linejoin="round" stroke-width="0.7" x2="50.4"/>
        <rect y="79.2"  x="50.05" width="0.7" fill="none" gorn="0.2.48" id="connector19pin" height="14.4"/>
        <polygon points="50.05,93.6 50.75,93.6 50.75,93.6 "  fill="none" gorn="0.2.49" id="connector19terminal"/>
        <g transform="matrix(1, 0, 0, 1, 51.8, 77.6002)" >
            <g >
                <g >
                    <g transform="rotate(270)" >
                        <g >
                            <g >
                                <g transform="matrix(1 0 0 1 -0.0002 0)" >
                                    <g >
                                        <text font-family="'DroidSans'"  fill="#8C8C8C" gorn="0.2.50.0.0.0.0.0.0.0.0" id="label19" font-size="2.8">GND</text>
                                    </g>
                                </g>
                            </g>
                        </g>
                    </g>
                </g>
            </g>
        </g>
        <rect y="0"  x="57.25" width="0.7" fill="none" gorn="0.2.51" id="connector35pin" height="14.4"/>
        <polygon points="57.25,0 57.95,0 57.95,0 "  fill="none" gorn="0.2.52" id="connector35terminal"/>
        <rect y="0"  x="57.25" width="0.7" fill="none" gorn="0.2.53" id="connector26pin" height="14.4"/>
        <polygon points="57.25,0 57.95,0 57.95,0 "  fill="none" gorn="0.2.54" id="connector26terminal"/>
        <rect y="79.2"  x="50.05" width="0.7" fill="none" gorn="0.2.55" id="connector37pin" height="14.4"/>
        <polygon points="50.05,93.6 50.75,93.6 50.75,93.6 "  fill="none" gorn="0.2.56" id="connector37terminal"/>
        <rect y="79.2"  x="50.05" width="0.7" fill="none" gorn="0.2.57" id="connector25pin" height="14.4"/>
        <polygon points="50.05,93.6 50.75,93.6 50.75,93.6 "  fill="none" gorn="0.2.58" id="connector25terminal"/>
        <rect y="28.45"  x="93.6" width="14.4" fill="none" gorn="0.2.59" id="connector38pin" height="0.7"/>
        <rect y="28.45"  x="108" width="0" fill="none" gorn="0.2.60" id="connector38terminal" height="0.7"/>
        <rect y="28.45"  x="93.6" width="14.4" fill="none" gorn="0.2.61" id="connector28pin" height="0.7"/>
        <rect y="28.45"  x="108" width="0" fill="none" gorn="0.2.62" id="connector28terminal" height="0.7"/>
        <rect y="35.65"  x="93.6" width="14.4" fill="none" gorn="0.2.63" id="connector39pin" height="0.7"/>
        <rect y="35.65"  x="108" width="0" fill="none" gorn="0.2.64" id="connector39terminal" height="0.7"/>
        <rect y="35.65"  x="93.6" width="14.4" fill="none" gorn="0.2.65" id="connector27pin" height="0.7"/>
        <rect y="35.65"  x="108" width="0" fill="none" gorn="0.2.66" id="connector27terminal" height="0.7"/>
    </g>
</svg>
